<svg xmlns="http://www.w3.org/2000/svg" width="1240" height="1754" viewBox="0 0 1240 1754" fill="none">
  <rect width="1240" height="1754" fill="#FCFDF9"/>
  <rect x="0" y="0" width="1240" height="210" fill="url(#top)"/>
  <path d="M0 210C154 244 287 229 430 187C609 135 756 132 943 191C1060 228 1157 236 1240 214V0H0V210Z" fill="url(#topWave)" opacity="0.95"/>
  <path d="M0 1556C156 1514 307 1522 470 1584C620 1641 794 1664 970 1589C1067 1548 1156 1535 1240 1549V1754H0V1556Z" fill="url(#bottom)" opacity="0.95"/>
  <circle cx="1012" cy="126" r="154" fill="#E0C595" fill-opacity="0.16"/>
  <circle cx="1106" cy="130" r="70" fill="#FFFFFF" fill-opacity="0.09"/>
  <circle cx="130" cy="1614" r="186" fill="#8AA791" fill-opacity="0.14"/>
  <path d="M86 318H1154" stroke="#203028" stroke-opacity="0.06" stroke-width="2"/>
  <path d="M86 1452H1154" stroke="#B2945F" stroke-opacity="0.10" stroke-width="2"/>
  <g opacity="0.055" transform="translate(132 692) rotate(-24)">
    <text x="0" y="0" font-family="Tahoma, Arial, sans-serif" font-size="190" font-weight="900" fill="#203028">مَدار</text>
    <text x="32" y="120" font-family="Arial, sans-serif" font-size="54" font-weight="800" letter-spacing="12" fill="#203028">STUDY OS</text>
  </g>
  <g opacity="0.035">
    <path d="M1010 430L1138 504L1010 578L882 504L1010 430Z" fill="#6B8872"/>
    <path d="M1010 604L1138 678L1010 752L882 678L1010 604Z" fill="#B2945F"/>
    <path d="M230 1040L338 1102L230 1164L122 1102L230 1040Z" fill="#6B8872"/>
  </g>
  <rect x="42" y="42" width="1156" height="1670" rx="34" stroke="#203028" stroke-opacity="0.055" stroke-width="3"/>
  <rect x="58" y="58" width="1124" height="1638" rx="26" stroke="#B2945F" stroke-opacity="0.10" stroke-width="2"/>
  <defs>
    <linearGradient id="top" x1="1240" y1="0" x2="0" y2="210" gradientUnits="userSpaceOnUse">
      <stop stop-color="#0F1F18"/>
      <stop offset="0.52" stop-color="#203B2F"/>
      <stop offset="1" stop-color="#6B8872"/>
    </linearGradient>
    <linearGradient id="topWave" x1="0" y1="0" x2="1240" y2="252" gradientUnits="userSpaceOnUse">
      <stop stop-color="#E0C595"/>
      <stop offset="0.34" stop-color="#6B8872"/>
      <stop offset="1" stop-color="#14241D"/>
    </linearGradient>
    <linearGradient id="bottom" x1="0" y1="1754" x2="1240" y2="1510" gradientUnits="userSpaceOnUse">
      <stop stop-color="#14241D"/>
      <stop offset="0.55" stop-color="#6B8872"/>
      <stop offset="1" stop-color="#E0C595"/>
    </linearGradient>
  </defs>
</svg>
